<svg width="500" height="450" viewBox="0 0 395 357" fill="none" xmlns="http://www.w3.org/2000/svg">
<path fill-rule="evenodd" clip-rule="evenodd" d="M196.36 344.488C177.02 341.14 160.307 329.72 140.767 327.75C110 324.648 64.9829 355.502 49.1557 329.649C31.9147 301.487 93.9846 271.801 86.8974 239.756C79.9491 208.339 19.2595 207.048 14.9926 175.182C11.461 148.807 46.728 130.879 70.5772 117.872C91.9505 106.216 117.608 106.345 142.106 105.857C160.711 105.487 178.137 119.035 196.36 115.368C221.087 110.391 237.373 81.3008 262.621 81.6023C286.516 81.8876 323.115 93.6402 323.416 116.885C323.859 151.137 251.407 168.468 264.159 200.398C279.836 239.655 357.258 219.561 378.969 255.997C392.926 279.418 360.661 309.061 339.123 326.204C318.174 342.879 289.211 345.363 262.374 348.8C240.231 351.636 218.349 348.294 196.36 344.488Z" fill="url(#paint0_linear_255:4390)"/>
<mask id="mask0_255:4390" style="mask-type:alpha" maskUnits="userSpaceOnUse" x="0" y="0" width="395" height="357">
<rect width="395" height="357" rx="30" fill="#C4C4C4"/>
</mask>
<g mask="url(#mask0_255:4390)">
<path d="M237.243 93.1747C237.243 93.1747 256.699 97.7172 264.402 106.484C272.105 115.251 269.457 137.846 267.449 150.853C265.441 163.861 260.058 173.265 266.428 177.807C272.798 182.35 275.083 178.142 275.083 178.142C275.083 178.142 266.428 192.424 257.305 194.385C248.183 196.346 235.495 185.283 233.487 175.544C231.479 165.805 230.129 151.172 231.756 141.098C233.383 131.024 236.568 127.604 238.178 120.782C239.788 113.96 238.507 102.595 238.507 102.595L237.243 93.1747Z" fill="#3B2645"/>
<path d="M209.063 339.596C247.973 339.596 279.515 313.998 279.515 282.42C279.515 250.843 247.973 225.244 209.063 225.244C170.154 225.244 138.612 250.843 138.612 282.42C138.612 313.998 170.154 339.596 209.063 339.596Z" fill="#AB8DA8"/>
<path d="M149.309 147.971L147.769 146.982L140.585 136.556L146.332 125.325L159.245 124.504L160.786 125.509L149.309 147.971Z" fill="#393762"/>
<path d="M162.222 147.166L149.309 147.971L142.125 137.544L147.855 126.314L160.785 125.509L167.952 135.935L162.222 147.166Z" fill="#636183"/>
<path d="M193.311 143.227C190.083 146.676 187.325 150.512 185.107 154.642C180.744 162.353 169.718 173.081 167.675 175.26C166.713 176.431 165.48 177.367 164.075 177.992C162.13 172.478 160.591 166.837 159.47 161.112C158.449 154.407 156.909 141.232 156.909 141.232L161.011 133.287C161.011 133.287 157.67 126.817 156.389 126.347C155.108 125.878 152.546 126.582 148.704 129.817C144.861 133.052 143.303 136.271 145.103 140.227C146.903 144.182 150.746 148.172 150.296 154.625C149.846 161.079 150.054 183.691 152.356 191.133C154.658 198.576 154.416 198.593 157.549 198.593C160.682 198.593 169.666 194.855 179.1 190.211C184.626 187.539 189.316 183.489 192.688 178.478L193.311 143.227Z" fill="#FFEDE5"/>
<path d="M212.802 139.265C208.497 138.556 204.094 138.636 199.819 139.5C193.449 140.991 190.143 144.931 188.862 152.088C187.581 159.245 183.011 168.129 186.075 174.834C189.139 181.539 191.926 186.685 192.186 192.099C192.31 197.267 192.062 202.437 191.441 207.571C190.935 208.597 190.357 209.588 189.71 210.538C189.71 210.538 189.191 214.477 176.451 211.024C163.711 207.571 147.422 208.56 130.614 212.264C113.806 215.969 104.891 218.969 104.13 224.35C103.368 229.731 103.368 263.305 104.891 273.178C105.748 279.826 105.579 286.56 104.389 293.159C100.168 296.004 95.641 298.398 90.8876 300.3C83.7559 303.015 79.6881 304.49 80.9517 307.004C82.2153 309.519 87.0621 309.971 93.1726 309.971C99.283 309.971 107.696 309.485 107.696 309.485C107.696 309.485 100.062 314.162 94.9555 317.364C89.849 320.565 85.0369 321.319 87.3218 324.772C89.6067 328.225 111.556 327.236 116.87 327.236C122.184 327.236 128.329 325.259 128.831 323.046C129.333 320.833 127.308 313.173 127.308 310.223C127.308 307.273 126.546 294.181 129.593 288.264C132.639 282.347 137.244 265.082 136.984 258.428C136.725 251.773 136.223 247.582 136.223 247.582C136.223 247.582 165.476 251.471 176.901 255.41C188.326 259.349 213.823 262.568 225.802 256.902C237.78 251.237 242.61 244.314 240.827 234.458C239.044 224.601 234.197 218.181 235.478 206.582C236.759 194.983 236.742 183.651 239.806 177.986C242.869 172.32 249.742 162.196 249.222 155.541C248.703 148.886 235.98 142.131 229.61 139.751C223.24 137.371 212.802 139.265 212.802 139.265Z" fill="#FFEDE5"/>
<path d="M104.061 224.943C103.299 230.357 103.299 263.898 104.822 273.771C105.679 280.419 105.51 287.153 104.32 293.752C100.099 296.597 95.5719 298.991 90.8185 300.893C83.6868 303.608 79.619 305.083 80.8826 307.597C82.1462 310.112 86.993 310.564 93.1035 310.564C98.2965 310.564 105.099 310.212 107.055 310.095C108.284 309.71 110.69 308.888 110.69 308.419C110.69 307.949 112.716 289.98 112.975 272.648C113.235 255.316 115.278 235.302 115.278 235.302L112.993 226.418C110.896 224.511 108.638 222.779 106.242 221.239C105.077 222.178 104.302 223.494 104.061 224.943V224.943Z" fill="#FFEDE5"/>
<path d="M110.171 301.882C110.171 301.882 109.409 300.205 108.129 296.954C107.903 296.109 107.418 295.351 106.738 294.78C106.058 294.208 105.215 293.85 104.32 293.752C100.099 296.597 95.5719 298.991 90.8185 300.893C83.6868 303.608 79.619 305.083 80.8826 307.598C82.1462 310.112 86.993 310.564 93.1035 310.564C98.2965 310.564 105.099 310.212 107.055 310.095C108.284 309.71 110.69 308.888 110.69 308.419C110.69 308.151 110.933 305.737 111.279 301.999L110.171 301.882Z" fill="#3B2645"/>
<path d="M208.475 219.26C201.915 215.917 196.204 211.205 191.753 205.465C191.615 206.923 191.494 207.946 191.425 208.164C190.918 209.19 190.34 210.181 189.694 211.131C189.694 211.131 189.174 215.07 176.434 211.617C163.694 208.164 147.405 209.153 130.597 212.857C113.789 216.562 104.875 219.562 104.113 224.943C104.113 225.194 104.113 225.513 104.009 225.881C104.99 227.266 106.047 228.597 107.177 229.871C109.394 232.277 112.171 234.139 115.278 235.302C116.057 238.755 120.886 249.6 128.018 249.6C135.15 249.6 136.171 248.125 136.171 248.125C136.171 248.125 165.477 252.064 176.901 256.003C188.326 259.942 213.824 263.161 225.802 257.495C237.781 251.829 242.61 244.906 240.827 235.05C240.035 231.264 238.977 227.534 237.66 223.887C229.905 224.289 217.407 224.038 208.475 219.26Z" fill="#3B2645"/>
<path d="M191.441 208.164C190.935 209.19 190.357 210.181 189.71 211.131C189.71 211.131 189.191 215.07 176.451 211.617C163.711 208.164 147.422 209.153 130.614 212.857C113.806 216.562 104.891 219.562 104.13 224.943C103.974 226.033 103.853 228.295 103.766 231.195C107.115 233.608 111.112 235.034 115.277 235.302C117.099 232.255 119.729 229.735 122.894 228.002C126.059 226.27 129.644 225.387 133.28 225.446C146.158 225.446 200.598 226.418 200.598 226.418L207.868 210.377C207.868 210.377 199.213 204.46 192.099 200.604C191.874 204.393 191.562 207.745 191.441 208.164Z" fill="#3B2645"/>
<path d="M235.582 209.455C236.239 206.722 249.222 192.273 250.52 187.245C251.818 182.216 256.579 166.912 252.251 158.112C247.924 149.312 242.506 147.216 242.506 147.216C238.529 144.386 234.203 142.049 229.627 140.26C223.274 137.796 212.819 139.774 212.819 139.774C208.514 139.065 204.111 139.145 199.836 140.009C193.466 141.5 190.16 145.44 188.879 152.597C187.598 159.755 183.011 168.722 186.075 175.427C189.139 182.132 191.926 187.278 192.185 192.692C192.31 197.86 192.061 203.03 191.441 208.164C190.935 209.19 190.356 210.181 189.71 211.131V211.231C191.597 215.003 195.924 222.965 200.685 226.418C205.153 226.551 209.45 228.113 212.906 230.86C218.099 235.302 224.382 236.274 231.254 236.274C234.515 236.148 237.743 235.584 240.844 234.598C239.113 225.814 235.114 219.696 235.391 210.008C235.492 209.838 235.557 209.649 235.582 209.455V209.455Z" fill="#AB8DA8"/>
<path d="M232.812 124.956C232.812 124.956 239.2 115.452 240.221 107.322C241.242 99.1926 239.719 91.6161 230.545 86.8556C221.37 82.0952 207.868 86.8556 203.801 91.6161C199.733 96.3766 200.235 105.428 199.213 107.406C198.192 109.384 193.605 112.586 194.124 113.826C194.644 115.066 197.95 116.759 197.95 116.759L199.681 124.403C200.183 126.632 201.706 129.583 203.489 129.583C205.912 129.338 208.317 128.946 210.69 128.409C210.69 128.409 211.192 136.12 209.686 139.221C207.661 143.411 197.223 168.521 201.81 171.069C206.397 173.617 225.802 153.905 231.393 149.714C236.984 145.523 229.662 140.344 229.662 140.344C229.662 140.344 227.152 140.243 228.173 134.075C228.621 130.618 230.255 127.407 232.812 124.956Z" fill="#FFEDE5"/>
<path d="M116.801 327.779C122.149 327.779 128.26 325.801 128.762 323.589C129.177 321.812 127.966 316.599 127.446 313.045C126.392 313.411 125.292 313.637 124.175 313.716C121.441 313.807 118.707 313.559 116.039 312.978C115.979 311.957 115.72 310.956 115.277 310.028C114.516 308.352 110.708 308.352 110.708 308.352L106.501 310.129H107.644C107.644 310.129 100.01 314.805 94.9035 318.007C89.7971 321.208 84.9849 321.963 87.2698 325.416C89.5547 328.869 111.452 327.779 116.801 327.779Z" fill="#3B2645"/>
<path d="M243.51 109.032C244.514 100.902 239.719 91.616 230.545 86.8556C222.877 82.9332 212.214 85.5816 206.501 89.2861C207.643 89.4863 208.671 90.0822 209.392 90.9623C213.079 94.8679 211.123 102.009 214.429 105.26C217.736 108.512 219.449 107.54 219.449 107.54C219.449 107.54 223.154 101.69 224.815 107.54C226.477 113.39 224.158 115.921 222.479 116.625C221.284 117.061 220.049 117.386 218.792 117.597C218.792 117.597 227.793 125.291 232.813 125.023C232.813 124.956 242.489 117.178 243.51 109.032Z" fill="#3B2645"/>
<path d="M153.723 151.491L152.2 150.485L145.016 140.059L150.746 128.828L163.659 128.023L165.2 129.012L153.723 151.491Z" fill="#393762"/>
<path d="M166.653 150.669L153.723 151.491L146.556 141.048L152.286 129.817L165.199 129.012L172.383 139.439L166.653 150.669Z" fill="#636183"/>
<path d="M256.509 244.907C254.71 240.806 253.668 236.432 253.428 231.983C253.428 227.44 248.044 215.724 248.044 213.125C248.773 202.919 250.067 192.757 251.922 182.685C254.864 173.097 254.622 162.721 252.251 158.112C249.879 153.502 240.341 154.34 237.745 161.883C235.148 169.426 235.304 184.06 235.304 184.06C234.439 190.63 233.85 205.281 233.573 214.081C233.383 221.909 235.096 229.804 238.974 235.436C244.461 243.415 247.058 253.874 248.737 253.874C250.416 253.874 259.313 252.802 259.313 252.802C259.313 252.802 259.78 251.913 256.509 244.907Z" fill="#FFEDE5"/>
<path d="M261.305 261.351C261.305 261.351 263.036 252.265 262.655 250.304C262.275 248.343 256.614 249.667 254.26 249.667C251.906 249.667 250.244 249.332 250.573 250.639C250.902 251.947 255.61 252.316 255.61 252.316L257.341 252.953L261.305 261.351Z" fill="#FFEDE5"/>
<path d="M272.815 254.914H238.264V259.456H272.815V254.914Z" fill="#636183"/>
<path d="M285.556 244.856H270.461V268.893H285.556V244.856Z" fill="#636183"/>
<path d="M238.922 244.856H223.828V268.893H238.922V244.856Z" fill="#636183"/>
<path d="M244.635 251.343L246.521 260.261C246.645 260.856 246.986 261.389 247.482 261.761C247.978 262.134 248.595 262.321 249.222 262.289C251.576 262.155 255.228 261.954 257.375 261.736C260.733 261.417 261.737 262.389 262.083 260.059C262.239 258.886 262.498 256.707 262.723 254.863C262.768 254.459 262.723 254.051 262.591 253.666C262.459 253.28 262.242 252.927 261.957 252.63C261.671 252.333 261.323 252.098 260.935 251.943C260.548 251.787 260.131 251.714 259.712 251.729C257.098 251.729 253.809 251.93 253.013 251.93C251.68 251.997 247.318 248.426 244.635 251.343Z" fill="#FFEDE5"/>
</g>
<defs>
<linearGradient id="paint0_linear_255:4390" x1="14.7465" y1="81.6" x2="502.152" y2="133.284" gradientUnits="userSpaceOnUse">
<stop stop-color="#92A3FD"/>
<stop offset="1" stop-color="#9DCEFF"/>
</linearGradient>
</defs>
</svg>
