<svg width="24" height="25" viewBox="0 0 24 25" fill="none" xmlns="http://www.w3.org/2000/svg">
<path fill-rule="evenodd" clip-rule="evenodd" d="M16.9394 3.125C18.2804 3.125 19.5704 3.67708 20.5194 4.66771C21.4694 5.65625 22.0004 6.98958 22.0004 8.38542V16.6146C22.0004 19.5208 19.7304 21.875 16.9394 21.875H7.06037C4.26937 21.875 2.00037 19.5208 2.00037 16.6146V8.38542C2.00037 5.47917 4.25937 3.125 7.06037 3.125H16.9394ZM18.5304 9.9375L18.6104 9.85417C18.8494 9.55208 18.8494 9.11458 18.5994 8.8125C18.4604 8.65729 18.2694 8.5625 18.0704 8.54167C17.8604 8.53021 17.6604 8.60417 17.5094 8.75L13.0004 12.5C12.4204 13.001 11.5894 13.001 11.0004 12.5L6.50037 8.75C6.18937 8.51042 5.75937 8.54167 5.50037 8.82292C5.23037 9.10417 5.20037 9.55208 5.42937 9.86458L5.56037 10L10.1104 13.6979C10.6704 14.1563 11.3494 14.4063 12.0604 14.4063C12.7694 14.4063 13.4604 14.1563 14.0194 13.6979L18.5304 9.9375Z" fill="#130F26"/>
</svg>
