<svg width="24" height="24" viewBox="0 0 24 24" fill="none" xmlns="http://www.w3.org/2000/svg">
<path fill-rule="evenodd" clip-rule="evenodd" d="M7.33018 2H16.6602C20.0602 2 22.0002 3.92 22.0002 7.33V16.67C22.0002 20.06 20.0702 22 16.6702 22H7.33018C3.92018 22 2.00018 20.06 2.00018 16.67V7.33C2.00018 3.92 3.92018 2 7.33018 2ZM12.8202 12.83H15.6602C16.1202 12.82 16.4902 12.45 16.4902 11.99C16.4902 11.53 16.1202 11.16 15.6602 11.16H12.8202V8.34C12.8202 7.88 12.4502 7.51 11.9902 7.51C11.5302 7.51 11.1602 7.88 11.1602 8.34V11.16H8.33018C8.11018 11.16 7.90018 11.25 7.74018 11.4C7.59018 11.56 7.50018 11.769 7.50018 11.99C7.50018 12.45 7.87018 12.82 8.33018 12.83H11.1602V15.66C11.1602 16.12 11.5302 16.49 11.9902 16.49C12.4502 16.49 12.8202 16.12 12.8202 15.66V12.83Z" fill="#130F26"/>
</svg>
