<svg width="24" height="24" viewBox="0 0 24 24" fill="none" xmlns="http://www.w3.org/2000/svg">
<g id="Iconly/Light/Bag">
<g id="Bag">
<path id="Path_33955" fill-rule="evenodd" clip-rule="evenodd" d="M16.5137 21.5H8.16592C5.09955 21.5 2.74715 20.3925 3.41534 15.9348L4.19338 9.89363C4.60528 7.66937 6.02404 6.81812 7.26889 6.81812H17.4474C18.7105 6.81812 20.0469 7.73345 20.5229 9.89363L21.3009 15.9348C21.8684 19.8891 19.5801 21.5 16.5137 21.5Z" stroke="#130F26" stroke-width="1.5" stroke-linecap="round" stroke-linejoin="round"/>
<path id="Path_33956" d="M16.651 6.59848C16.651 4.21241 14.7167 2.27812 12.3307 2.27812V2.27812C11.1817 2.27325 10.0781 2.72628 9.26388 3.53703C8.44969 4.34778 7.99199 5.44947 7.992 6.59848H7.992" stroke="#130F26" stroke-width="1.5" stroke-linecap="round" stroke-linejoin="round"/>
<path id="Line_192" d="M15.2963 11.102H15.2506" stroke="#130F26" stroke-width="1.5" stroke-linecap="round" stroke-linejoin="round"/>
<path id="Line_193" d="M9.46572 11.102H9.41995" stroke="#130F26" stroke-width="1.5" stroke-linecap="round" stroke-linejoin="round"/>
</g>
</g>
</svg>
