<svg width="24" height="24" viewBox="0 0 24 24" fill="none" xmlns="http://www.w3.org/2000/svg">
<g id="Iconly/Light/Delete">
<g id="Delete">
<path id="Stroke 1" d="M19.3249 9.46826C19.3249 9.46826 18.7819 16.2033 18.4669 19.0403C18.3169 20.3953 17.4799 21.1893 16.1089 21.2143C13.4999 21.2613 10.8879 21.2643 8.27991 21.2093C6.96091 21.1823 6.13791 20.3783 5.99091 19.0473C5.67391 16.1853 5.13391 9.46826 5.13391 9.46826" stroke="#130F26" stroke-width="1.5" stroke-linecap="round" stroke-linejoin="round"/>
<path id="Stroke 3" d="M20.7082 6.23975H3.75024" stroke="#130F26" stroke-width="1.5" stroke-linecap="round" stroke-linejoin="round"/>
<path id="Stroke 5" d="M17.4407 6.23973C16.6557 6.23973 15.9797 5.68473 15.8257 4.91573L15.5827 3.69973C15.4327 3.13873 14.9247 2.75073 14.3457 2.75073H10.1127C9.5337 2.75073 9.0257 3.13873 8.8757 3.69973L8.6327 4.91573C8.4787 5.68473 7.8027 6.23973 7.0177 6.23973" stroke="#130F26" stroke-width="1.5" stroke-linecap="round" stroke-linejoin="round"/>
</g>
</g>
</svg>
