<svg width="24" height="24" viewBox="0 0 24 24" fill="none" xmlns="http://www.w3.org/2000/svg">
<g id="Iconly/Light/Hide">
<g id="Hide">
<path id="Stroke 1" d="M9.76057 14.3667C9.18557 13.7927 8.83557 13.0127 8.83557 12.1377C8.83557 10.3847 10.2476 8.97168 11.9996 8.97168C12.8666 8.97168 13.6646 9.32268 14.2296 9.89668" stroke="#130F26" stroke-width="1.5" stroke-linecap="round" stroke-linejoin="round"/>
<path id="Stroke 3" d="M15.1047 12.6987C14.8727 13.9887 13.8567 15.0067 12.5677 15.2407" stroke="#130F26" stroke-width="1.5" stroke-linecap="round" stroke-linejoin="round"/>
<path id="Stroke 5" d="M6.65457 17.4722C5.06757 16.2262 3.72357 14.4062 2.74957 12.1372C3.73357 9.85823 5.08657 8.02823 6.68357 6.77223C8.27057 5.51623 10.1016 4.83423 11.9996 4.83423C13.9086 4.83423 15.7386 5.52623 17.3356 6.79123" stroke="#130F26" stroke-width="1.5" stroke-linecap="round" stroke-linejoin="round"/>
<path id="Stroke 7" d="M19.4476 8.99072C20.1356 9.90472 20.7406 10.9597 21.2496 12.1367C19.2826 16.6937 15.8066 19.4387 11.9996 19.4387C11.1366 19.4387 10.2856 19.2987 9.46759 19.0257" stroke="#130F26" stroke-width="1.5" stroke-linecap="round" stroke-linejoin="round"/>
<path id="Stroke 9" d="M19.887 4.24951L4.11298 20.0235" stroke="#130F26" stroke-width="1.5" stroke-linecap="round" stroke-linejoin="round"/>
</g>
</g>
</svg>
