<svg width="24" height="24" viewBox="0 0 24 24" fill="none" xmlns="http://www.w3.org/2000/svg">
<g id="Iconly/Light/Volume Off">
<g id="Volume Off">
<path id="Stroke 1" fill-rule="evenodd" clip-rule="evenodd" d="M14.5329 9.46704L7.71357 16.2869C7.53632 16.1842 7.36841 16.1189 7.21915 16.1096C5.92245 16.0163 5.4187 16.1656 4.70971 15.5592C3.94476 14.9061 4.00073 13.1615 4.00073 11.8834C4.00073 10.6052 3.94476 8.86063 4.70971 8.20757C5.4187 7.60115 5.92245 7.75975 7.21915 7.65713C8.51584 7.55451 11.2585 3.59882 13.3761 4.84897C14.2344 5.54868 14.4676 6.8548 14.5329 9.46704Z" stroke="#130F26" stroke-width="1.5" stroke-linecap="round" stroke-linejoin="round"/>
<path id="Stroke 3" d="M14.5329 13.9172C14.4955 16.7907 14.2717 18.1901 13.3761 18.9178C12.3966 19.4962 11.2865 18.9645 10.2416 18.2088" stroke="#130F26" stroke-width="1.5" stroke-linecap="round" stroke-linejoin="round"/>
<path id="Stroke 5" d="M4.00122 20L7.71406 16.2869L14.5334 9.46706L20 4" stroke="#130F26" stroke-width="1.5" stroke-linecap="round" stroke-linejoin="round"/>
</g>
</g>
</svg>
