<svg width="183" height="19" viewBox="0 0 183 19" fill="none" xmlns="http://www.w3.org/2000/svg">
<path d="M1.952 2.642V6.98H6.776V8.24H1.952V12.668H7.316V14H0.314V1.31H7.316V2.642H1.952ZM13.2535 12.254L16.3135 4.118H18.0775L14.2075 14H12.2635L8.39347 4.118H10.1575L13.2535 12.254ZM28.7751 8.51C28.7751 8.858 28.7511 9.158 28.7031 9.41H20.8011C20.8371 10.538 21.1551 11.384 21.7551 11.948C22.3671 12.512 23.1111 12.794 23.9871 12.794C24.7791 12.794 25.4391 12.596 25.9671 12.2C26.5071 11.792 26.8371 11.252 26.9571 10.58H28.7031C28.5831 11.264 28.3131 11.876 27.8931 12.416C27.4851 12.956 26.9511 13.376 26.2911 13.676C25.6311 13.976 24.8871 14.126 24.0591 14.126C23.1111 14.126 22.2711 13.922 21.5391 13.514C20.8071 13.106 20.2311 12.524 19.8111 11.768C19.4031 11 19.1991 10.1 19.1991 9.068C19.1991 8.036 19.4031 7.136 19.8111 6.368C20.2311 5.6 20.8071 5.012 21.5391 4.604C22.2711 4.196 23.1111 3.992 24.0591 3.992C25.0191 3.992 25.8531 4.196 26.5611 4.604C27.2811 5.012 27.8271 5.558 28.1991 6.242C28.5831 6.926 28.7751 7.682 28.7751 8.51ZM27.1191 8.618C27.1551 7.886 27.0351 7.274 26.7591 6.782C26.4831 6.29 26.1051 5.924 25.6251 5.684C25.1451 5.444 24.6231 5.324 24.0591 5.324C23.1591 5.324 22.4031 5.606 21.7911 6.17C21.1791 6.722 20.8491 7.538 20.8011 8.618H27.1191ZM32.5555 6.116C32.8795 5.432 33.3535 4.904 33.9775 4.532C34.6015 4.148 35.3455 3.956 36.2095 3.956V5.738H35.7055C34.7815 5.738 34.0255 5.978 33.4375 6.458C32.8495 6.926 32.5555 7.706 32.5555 8.798V14H30.9175V4.118H32.5555V6.116ZM38.5097 4.118L41.7137 11.894L44.6837 4.118H46.5017L40.6337 18.68H38.7797L40.8317 13.838L36.6737 4.118H38.5097ZM53.4575 3.992C54.3335 3.992 55.1135 4.196 55.7975 4.604C56.4815 5.012 57.0155 5.6 57.3995 6.368C57.7955 7.136 57.9935 8.036 57.9935 9.068C57.9935 10.1 57.7955 11 57.3995 11.768C57.0155 12.524 56.4815 13.106 55.7975 13.514C55.1135 13.922 54.3335 14.126 53.4575 14.126C52.4975 14.126 51.6815 13.886 51.0095 13.406C50.3495 12.914 49.8935 12.272 49.6415 11.48V14H48.0035V0.68H49.6415V6.638C49.8935 5.846 50.3495 5.21 51.0095 4.73C51.6815 4.238 52.4975 3.992 53.4575 3.992ZM52.9895 5.45C52.3535 5.45 51.7775 5.6 51.2615 5.9C50.7455 6.188 50.3435 6.608 50.0555 7.16C49.7675 7.712 49.6235 8.348 49.6235 9.068C49.6235 9.788 49.7675 10.424 50.0555 10.976C50.3435 11.516 50.7455 11.936 51.2615 12.236C51.7775 12.536 52.3535 12.686 52.9895 12.686C54.0095 12.686 54.8195 12.368 55.4195 11.732C56.0315 11.084 56.3375 10.196 56.3375 9.068C56.3375 7.94 56.0315 7.058 55.4195 6.422C54.8195 5.774 54.0095 5.45 52.9895 5.45ZM64.6144 3.992C65.5624 3.992 66.4084 4.196 67.1524 4.604C67.9084 5.012 68.4964 5.6 68.9164 6.368C69.3484 7.136 69.5644 8.036 69.5644 9.068C69.5644 10.1 69.3484 11 68.9164 11.768C68.4964 12.524 67.9084 13.106 67.1524 13.514C66.4084 13.922 65.5624 14.126 64.6144 14.126C63.6664 14.126 62.8144 13.922 62.0584 13.514C61.3144 13.106 60.7264 12.524 60.2944 11.768C59.8624 11 59.6464 10.1 59.6464 9.068C59.6464 8.036 59.8624 7.136 60.2944 6.368C60.7264 5.6 61.3144 5.012 62.0584 4.604C62.8144 4.196 63.6664 3.992 64.6144 3.992ZM64.6144 5.432C64.0264 5.432 63.4804 5.564 62.9764 5.828C62.4844 6.092 62.0824 6.5 61.7704 7.052C61.4704 7.592 61.3204 8.264 61.3204 9.068C61.3204 9.86 61.4704 10.532 61.7704 11.084C62.0824 11.624 62.4844 12.026 62.9764 12.29C63.4804 12.554 64.0264 12.686 64.6144 12.686C65.2024 12.686 65.7424 12.554 66.2344 12.29C66.7384 12.026 67.1404 11.624 67.4404 11.084C67.7524 10.532 67.9084 9.86 67.9084 9.068C67.9084 8.264 67.7524 7.592 67.4404 7.052C67.1404 6.5 66.7384 6.092 66.2344 5.828C65.7424 5.564 65.2024 5.432 64.6144 5.432ZM75.7488 3.992C76.7088 3.992 77.5188 4.232 78.1788 4.712C78.8508 5.192 79.3188 5.834 79.5828 6.638V0.68H81.2208V14H79.5828V11.48C79.3188 12.284 78.8508 12.926 78.1788 13.406C77.5188 13.886 76.7088 14.126 75.7488 14.126C74.8728 14.126 74.0928 13.922 73.4088 13.514C72.7248 13.106 72.1848 12.524 71.7888 11.768C71.4048 11 71.2128 10.1 71.2128 9.068C71.2128 8.036 71.4048 7.136 71.7888 6.368C72.1848 5.6 72.7248 5.012 73.4088 4.604C74.0928 4.196 74.8728 3.992 75.7488 3.992ZM76.2168 5.45C75.2088 5.45 74.3988 5.774 73.7868 6.422C73.1868 7.058 72.8868 7.94 72.8868 9.068C72.8868 10.196 73.1868 11.084 73.7868 11.732C74.3988 12.368 75.2088 12.686 76.2168 12.686C76.8648 12.686 77.4408 12.536 77.9448 12.236C78.4608 11.936 78.8628 11.516 79.1508 10.976C79.4388 10.424 79.5828 9.788 79.5828 9.068C79.5828 8.348 79.4388 7.712 79.1508 7.16C78.8628 6.608 78.4608 6.188 77.9448 5.9C77.4408 5.6 76.8648 5.45 76.2168 5.45ZM84.5117 4.118L87.7157 11.894L90.6857 4.118H92.5037L86.6357 18.68H84.7817L86.8337 13.838L82.6757 4.118H84.5117ZM104.069 1.184C105.617 1.184 106.895 1.568 107.903 2.336C108.911 3.092 109.607 4.13 109.991 5.45H108.263C107.939 4.61 107.417 3.944 106.697 3.452C105.977 2.948 105.095 2.696 104.051 2.696C103.223 2.696 102.479 2.9 101.819 3.308C101.171 3.704 100.655 4.28 100.271 5.036C99.8987 5.78 99.7127 6.656 99.7127 7.664C99.7127 8.66 99.8987 9.53 100.271 10.274C100.655 11.018 101.171 11.594 101.819 12.002C102.479 12.398 103.223 12.596 104.051 12.596C105.095 12.596 105.977 12.35 106.697 11.858C107.417 11.354 107.939 10.682 108.263 9.842H109.991C109.607 11.162 108.911 12.206 107.903 12.974C106.895 13.73 105.617 14.108 104.069 14.108C102.881 14.108 101.831 13.838 100.919 13.298C100.007 12.746 99.2927 11.984 98.7767 11.012C98.2727 10.028 98.0207 8.912 98.0207 7.664C98.0207 6.404 98.2727 5.282 98.7767 4.298C99.2927 3.314 100.007 2.552 100.919 2.012C101.831 1.46 102.881 1.184 104.069 1.184ZM116.231 3.992C117.191 3.992 118.001 4.232 118.661 4.712C119.333 5.192 119.801 5.834 120.065 6.638V4.118H121.703V14H120.065V11.48C119.801 12.284 119.333 12.926 118.661 13.406C118.001 13.886 117.191 14.126 116.231 14.126C115.355 14.126 114.575 13.922 113.891 13.514C113.207 13.106 112.667 12.524 112.271 11.768C111.887 11 111.695 10.1 111.695 9.068C111.695 8.036 111.887 7.136 112.271 6.368C112.667 5.6 113.207 5.012 113.891 4.604C114.575 4.196 115.355 3.992 116.231 3.992ZM116.699 5.45C115.691 5.45 114.881 5.774 114.269 6.422C113.669 7.058 113.369 7.94 113.369 9.068C113.369 10.196 113.669 11.084 114.269 11.732C114.881 12.368 115.691 12.686 116.699 12.686C117.347 12.686 117.923 12.536 118.427 12.236C118.943 11.936 119.345 11.516 119.633 10.976C119.921 10.424 120.065 9.788 120.065 9.068C120.065 8.348 119.921 7.712 119.633 7.16C119.345 6.608 118.943 6.188 118.427 5.9C117.923 5.6 117.347 5.45 116.699 5.45ZM129.512 3.956C130.664 3.956 131.594 4.328 132.302 5.072C133.01 5.804 133.364 6.866 133.364 8.258V14H131.726V8.402C131.726 7.418 131.474 6.662 130.97 6.134C130.466 5.606 129.782 5.342 128.918 5.342C128.018 5.342 127.298 5.636 126.758 6.224C126.218 6.8 125.948 7.646 125.948 8.762V14H124.31V4.118H125.948V6.458C126.2 5.654 126.644 5.036 127.28 4.604C127.928 4.172 128.672 3.956 129.512 3.956ZM148.1 1.31V2.642H144.518V14H142.88V2.642H139.298V1.31H148.1ZM151.366 6.116C151.69 5.432 152.164 4.904 152.788 4.532C153.412 4.148 154.156 3.956 155.02 3.956V5.738H154.516C153.592 5.738 152.836 5.978 152.248 6.458C151.66 6.926 151.366 7.706 151.366 8.798V14H149.728V4.118H151.366V6.116ZM160.686 3.992C161.646 3.992 162.456 4.232 163.116 4.712C163.788 5.192 164.256 5.834 164.52 6.638V4.118H166.158V14H164.52V11.48C164.256 12.284 163.788 12.926 163.116 13.406C162.456 13.886 161.646 14.126 160.686 14.126C159.81 14.126 159.03 13.922 158.346 13.514C157.662 13.106 157.122 12.524 156.726 11.768C156.342 11 156.15 10.1 156.15 9.068C156.15 8.036 156.342 7.136 156.726 6.368C157.122 5.6 157.662 5.012 158.346 4.604C159.03 4.196 159.81 3.992 160.686 3.992ZM161.154 5.45C160.146 5.45 159.336 5.774 158.724 6.422C158.124 7.058 157.824 7.94 157.824 9.068C157.824 10.196 158.124 11.084 158.724 11.732C159.336 12.368 160.146 12.686 161.154 12.686C161.802 12.686 162.378 12.536 162.882 12.236C163.398 11.936 163.8 11.516 164.088 10.976C164.376 10.424 164.52 9.788 164.52 9.068C164.52 8.348 164.376 7.712 164.088 7.16C163.8 6.608 163.398 6.188 162.882 5.9C162.378 5.6 161.802 5.45 161.154 5.45ZM168.477 1.22C168.477 0.92 168.579 0.679999 168.783 0.499999C168.987 0.307999 169.257 0.211999 169.593 0.211999C169.929 0.211999 170.199 0.307999 170.403 0.499999C170.607 0.679999 170.709 0.92 170.709 1.22C170.709 1.52 170.607 1.766 170.403 1.958C170.199 2.138 169.929 2.228 169.593 2.228C169.257 2.228 168.987 2.138 168.783 1.958C168.579 1.766 168.477 1.52 168.477 1.22ZM170.403 4.118V14H168.765V4.118H170.403ZM178.239 3.956C179.391 3.956 180.321 4.328 181.029 5.072C181.737 5.804 182.091 6.866 182.091 8.258V14H180.453V8.402C180.453 7.418 180.201 6.662 179.697 6.134C179.193 5.606 178.509 5.342 177.645 5.342C176.745 5.342 176.025 5.636 175.485 6.224C174.945 6.8 174.675 7.646 174.675 8.762V14H173.037V4.118H174.675V6.458C174.927 5.654 175.371 5.036 176.007 4.604C176.655 4.172 177.399 3.956 178.239 3.956Z" fill="#7B6F72"/>
</svg>
