<svg width="162" height="37" viewBox="0 0 162 37" fill="none" xmlns="http://www.w3.org/2000/svg">
<path d="M18.72 10.548V15.444H8.28V21.024H16.344V25.704H8.28V36H2.124V10.548H18.72ZM21.3058 10.26C21.3058 9.324 21.6418 8.556 22.3138 7.956C22.9858 7.332 23.8738 7.02 24.9778 7.02C26.0818 7.02 26.9698 7.332 27.6418 7.956C28.3138 8.556 28.6498 9.324 28.6498 10.26C28.6498 11.172 28.3138 11.94 27.6418 12.564C26.9698 13.164 26.0818 13.464 24.9778 13.464C23.8738 13.464 22.9858 13.164 22.3138 12.564C21.6418 11.94 21.3058 11.172 21.3058 10.26ZM28.0378 15.912V36H21.8818V15.912H28.0378ZM43.6641 30.708V36H40.8921C38.5401 36 36.7041 35.424 35.3841 34.272C34.0881 33.096 33.4401 31.164 33.4401 28.476V21.096H30.7401V15.912H33.4401V10.98H39.5961V15.912H43.6281V21.096H39.5961V28.584C39.5961 29.376 39.7521 29.928 40.0641 30.24C40.4001 30.552 40.9521 30.708 41.7201 30.708H43.6641ZM59.868 15.696C62.172 15.696 63.996 16.464 65.34 18C66.708 19.536 67.392 21.648 67.392 24.336V36H61.236V25.056C61.236 23.712 60.876 22.668 60.156 21.924C59.46 21.156 58.524 20.772 57.348 20.772C56.1 20.772 55.104 21.168 54.36 21.96C53.64 22.752 53.28 23.88 53.28 25.344V36H47.124V15.912H53.28V19.584C53.856 18.384 54.708 17.436 55.836 16.74C56.988 16.044 58.332 15.696 59.868 15.696ZM90.5321 25.416C90.5321 25.92 90.4721 26.472 90.3521 27.072H76.4201C76.4921 28.584 76.8761 29.676 77.5721 30.348C78.2681 30.996 79.1561 31.32 80.2361 31.32C81.1481 31.32 81.9041 31.092 82.5041 30.636C83.1041 30.18 83.5001 29.592 83.6921 28.872H90.2081C89.9441 30.288 89.3681 31.56 88.4801 32.688C87.5921 33.792 86.4641 34.668 85.0961 35.316C83.7281 35.94 82.2041 36.252 80.5241 36.252C78.5561 36.252 76.8041 35.844 75.2681 35.028C73.7561 34.188 72.5681 32.988 71.7041 31.428C70.8401 29.868 70.4081 28.044 70.4081 25.956C70.4081 23.844 70.8281 22.02 71.6681 20.484C72.5321 18.924 73.7321 17.736 75.2681 16.92C76.8041 16.08 78.5561 15.66 80.5241 15.66C82.5161 15.66 84.2681 16.068 85.7801 16.884C87.2921 17.7 88.4561 18.852 89.2721 20.34C90.1121 21.804 90.5321 23.496 90.5321 25.416ZM84.3041 24.48C84.3281 23.16 83.9681 22.176 83.2241 21.528C82.5041 20.856 81.6041 20.52 80.5241 20.52C79.3961 20.52 78.4601 20.856 77.7161 21.528C76.9721 22.2 76.5521 23.184 76.4561 24.48H84.3041ZM101.049 15.66C103.593 15.66 105.621 16.296 107.133 17.568C108.669 18.84 109.629 20.52 110.013 22.608H104.253C104.085 21.792 103.701 21.156 103.101 20.7C102.525 20.22 101.793 19.98 100.905 19.98C100.209 19.98 99.6812 20.136 99.3212 20.448C98.9612 20.736 98.7812 21.156 98.7812 21.708C98.7812 22.332 99.1052 22.8 99.7532 23.112C100.425 23.424 101.469 23.736 102.885 24.048C104.421 24.408 105.681 24.78 106.665 25.164C107.649 25.524 108.501 26.124 109.221 26.964C109.941 27.804 110.301 28.932 110.301 30.348C110.301 31.5 109.989 32.52 109.365 33.408C108.741 34.296 107.841 34.992 106.665 35.496C105.489 36 104.097 36.252 102.489 36.252C99.7772 36.252 97.6052 35.652 95.9732 34.452C94.3412 33.252 93.3452 31.536 92.9852 29.304H98.9252C99.0212 30.168 99.3812 30.828 100.005 31.284C100.653 31.74 101.481 31.968 102.489 31.968C103.185 31.968 103.713 31.812 104.073 31.5C104.433 31.164 104.613 30.732 104.613 30.204C104.613 29.508 104.277 29.016 103.605 28.728C102.957 28.416 101.889 28.092 100.401 27.756C98.9132 27.444 97.6892 27.108 96.7292 26.748C95.7692 26.388 94.9412 25.812 94.2452 25.02C93.5492 24.204 93.2012 23.1 93.2012 21.708C93.2012 19.908 93.8852 18.456 95.2532 17.352C96.6212 16.224 98.5532 15.66 101.049 15.66ZM125.086 30.708V36H122.314C119.962 36 118.126 35.424 116.806 34.272C115.51 33.096 114.862 31.164 114.862 28.476V21.096H112.162V15.912H114.862V10.98H121.018V15.912H125.05V21.096H121.018V28.584C121.018 29.376 121.174 29.928 121.486 30.24C121.822 30.552 122.374 30.708 123.142 30.708H125.086Z" fill="#1D1617"/>
<path d="M150.822 36L143.372 25L136.972 36H127.172L138.472 17.8L126.822 0.649999H136.972L144.222 11.3L150.472 0.649999H160.222L149.072 18.45L160.972 36H150.822Z" fill="url(#paint0_linear_426:153)"/>
<defs>
<linearGradient id="paint0_linear_426:153" x1="297" y1="68.4074" x2="-54.2744" y2="-55.1187" gradientUnits="userSpaceOnUse">
<stop stop-color="#CC8FED"/>
<stop offset="1" stop-color="#9DCEFF"/>
</linearGradient>
</defs>
</svg>
